<?xml version="1.0" encoding="utf-8"?>
<!-- Generator: Adobe Illustrator 20.0.0, SVG Export Plug-In . SVG Version: 6.00 Build 0)  -->
<svg version="1.1" id="Layer_1" xmlns="http://www.w3.org/2000/svg" xmlns:xlink="http://www.w3.org/1999/xlink" x="0px" y="0px"
	 viewBox="0 0 256 256" style="enable-background:new 0 0 256 256;" xml:space="preserve">
<style type="text/css">
	.st0{fill:#505C28;}
	.st1{fill:#6D7B34;}
	.st2{fill:#83953A;}
	.st3{fill:#94A63A;}
</style>
<path class="st0" d="M34.8,101.3c-5.1,26.8,3.6,54,21.4,73.2l17.8-62L34.8,101.3z"/>
<path class="st1" d="M87,89l-26.1,90.3c9.1,8.3,19.9,14.9,32.6,18.8l28.6-99.3L87,89z"/>
<path class="st2" d="M132.7,82.8L99.4,199.9c14.1,3.3,28.3,2.9,41.7-0.4l30.4-105.5L132.7,82.8z"/>
<path class="st3" d="M147.6,197c25-9.1,45.7-29.4,53.6-56.9c0.4-1.1,0.7-2.2,0.7-3.3l0,0l0.4-1.1l0,0l4.7-17l4-13.8l9.8-34.8
	l1.8-6.5l-6.2-1.8l-27.9-8L147.6,197z M206.6,105.7c0-0.4,0-0.4,0-0.7C206.6,105.3,206.6,105.3,206.6,105.7z"/>
</svg>
